#!OML:ASF I:\golf\golf\golf 2\Subject 1\2002-09-07\Subject1.ASF
:FULLY-SPECIFIED
:DEGREES
282
root -6.72485 18.1883 -2.0276 -172.742 19.9491 -176.744
lowerback -3.73853 6.60844 11.9176
upperback -4.48441 11.9332 13.2068
thorax -3.58187 7.0106 7.52582
lowerneck -2.78282 -19.6735 -1.35892
upperneck 18.6699 -32.3896 1.84663
head 6.81205 -16.5255 -1.57683
rclavicle 6.20208e-014 3.81667e-014
rhumerus 61.8778 46.0049 -67.4397
rradius 40.8153
rwrist 1.54119
rhand -8.28805 9.1632
rfingers 7.12502
rthumb 17.6317 -20.0574
lclavicle 6.20208e-014 3.81667e-014
lhumerus 23.1235 -8.75591 85.3544
lradius 55.6595
lwrist 47.5438
lhand -25.214 28.6037
lfingers 7.12502
lthumb -178.695 -121.421
rfemur 3.44892 -4.90257 10.8031
rtibia 33.8211
rfoot 19.1074 -22.4457
rtoes 15.3178
lfemur -16.585 -8.84495 -18.181
ltibia 12.587
lfoot 26.2124 -40.4753
ltoes 24.7807
283
root -6.71664 18.1983 -2.08021 -172.4 18.9333 -176.594
lowerback -4.57372 6.72806 12.0416
upperback -4.21261 11.845 13.1107
thorax -2.76399 6.9833 7.53896
lowerneck -3.51257 -19.8572 -0.867146
upperneck 17.6839 -32.1017 2.15523
head 6.57117 -16.2548 -1.51463
rclavicle 8.66701e-014 -2.44903e-013
rhumerus 66.7005 45.9176 -64.0565
rradius 42.0625
rwrist 1.44251
rhand -9.44056 10.37
rfingers 7.12502
rthumb 16.5223 -18.9465
lclavicle 8.66701e-014 -2.44903e-013
lhumerus 24.9763 -7.07805 84.1867
lradius 58.2479
lwrist 47.0061
lhand -26.5738 27.6337
lfingers 7.12502
lthumb -180.008 -122.387
rfemur 3.45471 -4.86129 11.2566
rtibia 33.6893
rfoot 19.4158 -23.1259
rtoes 16.8689
lfemur -16.7283 -9.02074 -18.0233
ltibia 12.3124
lfoot 26.7692 -41.0268
ltoes 23.8036
284
root -6.70842 18.2056 -2.13649 -172.086 17.9651 -176.553
lowerback -4.67987 6.86173 12.1498
upperback -4.50938 12.062 12.8438
thorax -2.96062 7.07706 7.18814
lowerneck -3.38421 -19.9767 -0.62613
upperneck 16.7247 -31.9464 2.58246
head 6.27061 -16.1322 -1.31737
rclavicle 5.08889e-014 1.59028e-014
rhumerus 70.1336 45.7361 -61.8549
rradius 43.1798
rwrist 1.56928
rhand -10.7254 11.4233
rfingers 7.12502
rthumb 15.285 -17.9919
lclavicle 5.08889e-014 1.59028e-014
lhumerus 26.5346 -4.80746 84.3804
lradius 59.6668
lwrist 45.1994
lhand -26.9502 26.4417
lfingers 7.12502
lthumb -180.372 -123.579
rfemur 3.47048 -4.90229 11.5479
rtibia 33.5411
rfoot 19.9877 -23.2918
rtoes 17.1187
lfemur -16.8662 -9.19215 -17.9861
ltibia 12.0635
lfoot 28.1876 -40.8272
ltoes 24.7852
285
root -6.6974 18.2144 -2.19051 -171.704 17.0265 -176.45
lowerback -4.81131 7.04427 12.3134
upperback -4.85436 12.3458 12.5267
thorax -3.17546 7.19892 6.75996
lowerneck -3.27654 -20.0646 -0.531931
upperneck 16.0018 -31.836 3.02611
head 6.07679 -16.0379 -1.1366
rclavicle 5.96354e-014 8.5875e-014
rhumerus 73.2324 45.3597 -59.9914
rradius 44.3001
rwrist 2.01869
rhand -12.3776 12.3036
rfingers 7.12502
rthumb 13.6931 -17.2259
lclavicle 5.96354e-014 8.5875e-014
lhumerus 28.0829 -3.13551 84.2092
lradius 61.3248
lwrist 43.5532
lhand -27.1525 25.1239
lfingers 7.12502
lthumb -180.567 -124.897
rfemur 3.4282 -4.94293 11.9205
rtibia 33.3722
rfoot 20.6874 -23.0235
rtoes 17.0919
lfemur -17.1087 -9.23097 -17.8869
ltibia 11.8678
lfoot 30.677 -39.7404
ltoes 27.7275
286
root -6.68578 18.2236 -2.2447 -171.374 16.0776 -176.367
lowerback -4.86098 7.27807 12.4798
upperback -5.21872 12.7037 12.1424
thorax -3.43703 7.34642 6.24734
lowerneck -3.36973 -20.1882 -0.510042
upperneck 15.534 -31.8239 3.39345
head 5.99705 -15.9863 -1.02442
rclavicle -4.6118e-014 -1.90833e-013
rhumerus 75.9347 44.7068 -58.4869
rradius 45.4434
rwrist 2.62807
rhand -14.0833 13.2278
rfingers 7.12502
rthumb 12.0488 -16.4053
lclavicle -4.6118e-014 -1.90833e-013
lhumerus 29.6777 -1.94743 83.8185
lradius 63.0889
lwrist 42.0937
lhand -27.531 23.8705
lfingers 7.12502
lthumb -180.933 -126.152
rfemur 3.4364 -4.95469 12.3082
rtibia 33.1807
rfoot 21.4062 -22.8639
rtoes 16.6149
lfemur -17.3971 -9.26797 -17.8206
ltibia 11.8169
lfoot 31.8968 -39.8953
ltoes 27.5495
287
root -6.67431 18.2273 -2.30073 -171.112 15.0785 -176.267
lowerback -4.75553 7.49907 12.6897
upperback -5.6604 13.0969 11.7265
thorax -3.85071 7.50191 5.64559
lowerneck -3.38989 -20.3299 -0.557457
upperneck 15.0803 -31.8558 3.75971
head 5.92187 -15.9664 -0.904114
rclavicle 9.22361e-014 9.54166e-014
rhumerus 78.1539 43.9458 -57.4468
rradius 46.5693
rwrist 3.43803
rhand -15.6981 14.159
rfingers 7.12502
rthumb 10.4914 -15.5592
lclavicle 9.22361e-014 9.54166e-014
lhumerus 31.2505 -0.905083 83.419
lradius 64.8674
lwrist 40.8589
lhand -27.6428 23.1193
lfingers 7.12502
lthumb -181.041 -126.904
rfemur 3.56523 -5.04363 12.7262
rtibia 32.9577
rfoot 22.0791 -22.9869
rtoes 16.3741
lfemur -17.6576 -9.39487 -17.725
ltibia 11.8644
lfoot 32.7646 -40.3473
ltoes 27.0362
288
root -6.6617 18.2288 -2.35689 -170.81 14.0344 -176.086
lowerback -4.60289 7.66472 12.9512
upperback -6.22489 13.4679 11.2869
thorax -4.40769 7.64059 4.97227
lowerneck -3.30853 -20.4414 -0.434001
upperneck 14.7248 -31.8473 3.8934
head 5.79895 -15.95 -0.840039
rclavicle -8.90555e-014 4.45278e-014
rhumerus 79.736 43.2734 -57.2193
rradius 47.6252
rwrist 4.5147
rhand -17.0903 15.2673
rfingers 7.12502
rthumb 9.14822 -14.5143
lclavicle -8.90555e-014 4.45278e-014
lhumerus 32.753 0.0801509 82.9951
lradius 66.6304
lwrist 39.8154
lhand -27.3091 22.7386
lfingers 7.12502
lthumb -180.719 -127.283
rfemur 3.7102 -5.22767 13.2275
rtibia 32.6978
rfoot 22.389 -23.3848
rtoes 17.5729
lfemur -17.9632 -9.56091 -17.5224
ltibia 11.9784
lfoot 34.0989 -40.2321
ltoes 27.9746
289
root -6.64854 18.2342 -2.41019 -170.503 13.012 -175.934
lowerback -5.01549 7.74631 13.0628
upperback -6.32835 13.4974 11.052
thorax -4.20869 7.65303 4.74441
lowerneck -3.70706 -20.5191 -0.200679
upperneck 14.1533 -31.6157 3.91728
head 5.63867 -15.7899 -0.830993
rclavicle -9.54166e-015 3.18055e-014
rhumerus 82.0958 42.6622 -56.4918
rradius 48.7825
rwrist 5.44379
rhand -17.9458 16.6102
rfingers 7.12502
rthumb 8.32267 -13.2058
lclavicle -9.54166e-015 3.18055e-014
lhumerus 34.8443 1.49267 82.6146
lradius 68.2545
lwrist 38.6456
lhand -27.4404 21.9908
lfingers 7.12502
lthumb -180.845 -128.031
rfemur 3.8193 -5.34814 13.7264
rtibia 32.4137
rfoot 22.8458 -23.5338
rtoes 17.8256
lfemur -18.3466 -9.75242 -17.3319
ltibia 12.2084
lfoot 35.385 -39.9634
ltoes 29.1443
290
root -6.63286 18.2377 -2.46123 -170.235 11.9896 -175.823
lowerback -4.9816 7.87927 13.1674
upperback -6.70196 13.758 10.6996
thorax -4.53086 7.75354 4.28607
lowerneck -4.02615 -20.6357 -0.0399543
upperneck 13.8544 -31.521 3.80969
head 5.54722 -15.7159 -0.870877
rclavicle -8.50798e-014 -9.54166e-015
rhumerus 83.719 42.0057 -56.3712
rradius 49.9739
rwrist 6.30341
rhand -18.4248 17.954
rfingers 7.12502
rthumb 7.86032 -11.8799
lclavicle -8.50798e-014 -9.54166e-015
lhumerus 36.6355 2.31336 82.1657
lradius 69.6425
lwrist 37.1655
lhand -28.3576 20.4752
lfingers 7.12502
lthumb -181.731 -129.552
rfemur 3.96416 -5.39373 14.249
rtibia 32.1197
rfoot 23.3094 -23.8244
rtoes 17.6774
lfemur -18.7306 -9.94713 -17.1669
ltibia 12.4779
lfoot 36.5851 -39.7703
ltoes 30.3278
291
root -6.61763 18.2356 -2.51253 -169.968 10.9317 -175.733
lowerback -5.0706 7.99043 13.1675
upperback -7.06084 13.9646 10.3579
thorax -4.78849 7.8372 3.91518
lowerneck -4.3441 -20.7079 0.15899
upperneck 13.605 -31.3684 3.6284
head 5.45307 -15.6188 -0.929613
rclavicle -1.17681e-013 -7.63333e-014
rhumerus 85.4142 41.3114 -56.0685
rradius 51.3002
rwrist 6.84485
rhand -19 18.8365
rfingers 7.12502
rthumb 7.30518 -11.0174
lclavicle -1.17681e-013 -7.63333e-014
lhumerus 38.4863 3.08492 81.7942
lradius 70.9923
lwrist 35.9621
lhand -29.223 19.2429
lfingers 7.12502
lthumb -182.567 -130.793
rfemur 4.11406 -5.53425 14.7473
rtibia 31.8327
rfoot 23.7813 -24.0963
rtoes 17.9086
lfemur -19.0764 -10.1763 -17.0167
ltibia 12.6685
lfoot 37.8386 -39.5667
ltoes 31.3201
292
root -6.60272 18.2328 -2.56446 -169.731 9.85991 -175.567
lowerback -5.18663 7.98594 13.1528
upperback -7.32725 14.031 10.1879
thorax -4.98256 7.87429 3.73807
lowerneck -4.66302 -20.6624 -0.0466622
upperneck 13.3911 -31.055 3.59311
head 5.44757 -15.4419 -0.920556
rclavicle 1.09729e-013 1.30403e-013
rhumerus 87.3982 40.8315 -55.3749
rradius 52.7498
rwrist 7.09991
rhand -19.7798 19.3795
rfingers 7.12502
rthumb 6.55236 -10.4992
lclavicle 1.09729e-013 1.30403e-013
lhumerus 40.4068 4.17541 81.5632
lradius 72.3244
lwrist 35.0006
lhand -29.6487 18.2546
lfingers 7.12502
lthumb -182.978 -131.786
rfemur 4.28674 -5.77687 15.2909
rtibia 31.5532
rfoot 24.7896 -23.5477
rtoes 16.7973
lfemur -19.3575 -10.4383 -16.7765
ltibia 12.8138
lfoot 39.1073 -39.2293
ltoes 32.0828
